# xmcd CD database file
#
# Track frame offsets:
#	150
#	45114
#	71847
#	109797
#	145763
#	174602
#	223758
#
# Disc length: 3382 seconds
#
# Revision: 5
# Processed by: cddbd v1.5.2PL0 Copyright (c) Steve Scherf et al.
# Submitted via: CDex 1.70beta2
#
DISCID=620d3407
DTITLE=Deva Premal - Love is Space
DYEAR=2002
DGENRE=New Age
TTITLE0=Om Shree Saché
TTITLE1=Chidananda
TTITLE2=Om Mani Padme Hum
TTITLE3=Idé Weré Weré
TTITLE4=Jai Radha Madhav
TTITLE5=Gaté Gaté
TTITLE6=Om Namo Narayanaya
EXTD=YEAR: 2002
EXTT0=
EXTT1=
EXTT2=
EXTT3=
EXTT4=
EXTT5=
EXTT6=
PLAYORDER=
